[Scene-004] Analyzing scene content with Gemini...
Uploading /Users/shreybirmiwal/projects/GCinema/pipeline/output/CC-Girl-Scene/Scene-004/clip.mp4 ...
  Waiting for Gemini to process video ...
Upload complete: https://generativelanguage.googleapis.com/v1beta/files/tyqkz0cxn7tj
Generating description with gemini-3.1-pro-preview ...
Description written to: /Users/shreybirmiwal/projects/GCinema/pipeline/output/CC-Girl-Scene/Scene-004/description.txt
[Scene-004] Description saved.
[Scene-004] Extracting first frame as keyframe...
Frame saved to: /Users/shreybirmiwal/projects/GCinema/pipeline/output/CC-Girl-Scene/Scene-004/frame0.png
[Scene-004] Keyframe saved: frame0.png
[Scene-004] Waiting for Scene-003 colorization...
[Scene-004] Colorizing keyframe with Gemini...
[Scene-004] Using color reference from Scene-003
Input:     /Users/shreybirmiwal/projects/GCinema/pipeline/output/CC-Girl-Scene/Scene-004/frame0.png
Input2:    (none)
Reference: /Users/shreybirmiwal/projects/GCinema/pipeline/output/CC-Girl-Scene/Scene-003/frame0_colorized.jpg
Model:     gemini-3.1-flash-image-preview
Colorizing ...
Colorized image saved to: /Users/shreybirmiwal/projects/GCinema/pipeline/output/CC-Girl-Scene/Scene-004/frame0_colorized.jpg
[Scene-004] Colorized keyframe saved.
[Scene-004] Generating colorized video (10s target)...
Image:       /Users/shreybirmiwal/projects/GCinema/pipeline/output/CC-Girl-Scene/Scene-004/frame0_colorized.jpg
Description: /Users/shreybirmiwal/projects/GCinema/pipeline/output/CC-Girl-Scene/Scene-004/description.txt
Backend:     auto
Duration:    10s
Output:      /Users/shreybirmiwal/projects/GCinema/pipeline/output/CC-Girl-Scene/Scene-004/frame0_colorized_generated.mp4
Generating via Veo (veo-3.1-generate-preview) ...
Waiting for Veo to generate video..Warning: Veo content filter blocked generation (filtered=1): ["Sorry, we can't create videos from input images containing photorealistic children. Please remove the reference and try again."]

Falling back to Kling ...
Uploading image to fal.ai ...
Calling Kling v3 Pro image-to-video (10s) ...
Downloading Kling video ...
Video saved to: /Users/shreybirmiwal/projects/GCinema/pipeline/output/CC-Girl-Scene/Scene-004/frame0_colorized_generated.mp4
[Scene-004] Generated video saved.
[Scene-004] Time-stretching to match original clip duration...
ffmpeg version 8.0 Copyright (c) 2000-2025 the FFmpeg developers
  built with Apple clang version 17.0.0 (clang-1700.0.13.3)
  configuration: --prefix=/opt/homebrew/Cellar/ffmpeg/8.0_1 --enable-shared --enable-pthreads --enable-version3 --cc=clang --host-cflags= --host-ldflags='-Wl,-ld_classic' --enable-ffplay --enable-gnutls --enable-gpl --enable-libaom --enable-libaribb24 --enable-libbluray --enable-libdav1d --enable-libharfbuzz --enable-libjxl --enable-libmp3lame --enable-libopus --enable-librav1e --enable-librist --enable-librubberband --enable-libsnappy --enable-libsrt --enable-libssh --enable-libsvtav1 --enable-libtesseract --enable-libtheora --enable-libvidstab --enable-libvmaf --enable-libvorbis --enable-libvpx --enable-libwebp --enable-libx264 --enable-libx265 --enable-libxml2 --enable-libxvid --enable-lzma --enable-libfontconfig --enable-libfreetype --enable-frei0r --enable-libass --enable-libopencore-amrnb --enable-libopencore-amrwb --enable-libopenjpeg --enable-libspeex --enable-libsoxr --enable-libzmq --enable-libzimg --disable-libjack --disable-indev=jack --enable-videotoolbox --enable-audiotoolbox --enable-neon
  libavutil      60.  8.100 / 60.  8.100
  libavcodec     62. 11.100 / 62. 11.100
  libavformat    62.  3.100 / 62.  3.100
  libavdevice    62.  1.100 / 62.  1.100
  libavfilter    11.  4.100 / 11.  4.100
  libswscale      9.  1.100 /  9.  1.100
  libswresample   6.  1.100 /  6.  1.100
Input #0, mov,mp4,m4a,3gp,3g2,mj2, from '/Users/shreybirmiwal/projects/GCinema/pipeline/output/CC-Girl-Scene/Scene-004/frame0_colorized_generated.mp4':
  Metadata:
    minor_version   : 512
    major_brand     : isom
    compatible_brands: isomiso2avc1mp41
    encoder         : Lavf60.16.100
  Duration: 00:00:10.04, start: 0.000000, bitrate: 11113 kb/s
  Stream #0:0[0x1](und): Audio: aac (LC) (mp4a / 0x6134706D), 44100 Hz, stereo, fltp, 128 kb/s (default)
    Metadata:
      handler_name    : SoundHandler
      vendor_id       : [0][0][0][0]
  Stream #0:1[0x2](und): Video: h264 (Main) (avc1 / 0x31637661), yuv420p(progressive), 1920x1080, 10978 kb/s, 24 fps, 24 tbr, 12288 tbn (default)
    Metadata:
      handler_name    : VideoHandler
      vendor_id       : [0][0][0][0]
      encoder         : Lavc60.31.102 h264_slapi
Stream mapping:
  Stream #0:1 -> #0:0 (h264 (native) -> h264 (libx264))
  Stream #0:0 -> #0:1 (aac (native) -> aac (native))
Press [q] to stop, [?] for help
[h264 @ 0xbb4c4d880] Late SEI is not implemented. Update your FFmpeg version to the newest one from Git. If the problem still occurs, it means that your file has a feature which has not been implemented.
[h264 @ 0xbb4c4d880] If you want to help, upload a sample of this file to https://streams.videolan.org/upload/ and contact the ffmpeg-devel mailing list. (ffmpeg-devel@ffmpeg.org)
[libx264 @ 0xbb4c4d180] using cpu capabilities: ARMv8 NEON DotProd I8MM
[libx264 @ 0xbb4c4d180] profile High, level 4.0, 4:2:0, 8-bit
[libx264 @ 0xbb4c4d180] 264 - core 165 r3222 b35605a - H.264/MPEG-4 AVC codec - Copyleft 2003-2025 - http://www.videolan.org/x264.html - options: cabac=1 ref=2 deblock=1:0:0 analyse=0x3:0x113 me=hex subme=6 psy=1 psy_rd=1.00:0.00 mixed_ref=1 me_range=16 chroma_me=1 trellis=1 8x8dct=1 cqm=0 deadzone=21,11 fast_pskip=1 chroma_qp_offset=-2 threads=21 lookahead_threads=3 sliced_threads=0 nr=0 decimate=1 interlaced=0 bluray_compat=0 constrained_intra=0 bframes=3 b_pyramid=2 b_adapt=1 b_bias=0 direct=1 weightb=1 open_gop=0 weightp=1 keyint=250 keyint_min=24 scenecut=40 intra_refresh=0 rc_lookahead=30 rc=crf mbtree=1 crf=18.0 qcomp=0.60 qpmin=0 qpmax=69 qpstep=4 ip_ratio=1.40 aq=1:1.00
Output #0, mp4, to '/Users/shreybirmiwal/projects/GCinema/pipeline/output/CC-Girl-Scene/Scene-004/frame0_colorized_generated_matched.mp4':
  Metadata:
    minor_version   : 512
    major_brand     : isom
    compatible_brands: isomiso2avc1mp41
    encoder         : Lavf62.3.100
  Stream #0:0(und): Video: h264 (avc1 / 0x31637661), yuv420p(tv, progressive), 1920x1080, q=2-31, 24 fps, 12288 tbn (default)
    Metadata:
      encoder         : Lavc62.11.100 libx264
      handler_name    : VideoHandler
      vendor_id       : [0][0][0][0]
    Side data:
      cpb: bitrate max/min/avg: 0/0/0 buffer size: 0 vbv_delay: N/A
  Stream #0:1(und): Audio: aac (LC) (mp4a / 0x6134706D), 44100 Hz, stereo, fltp, 128 kb/s (default)
    Metadata:
      encoder         : Lavc62.11.100 aac
      handler_name    : SoundHandler
      vendor_id       : [0][0][0][0]
frame=   18 fps=0.0 q=23.0 size=     512KiB time=00:00:00.66 bitrate=6292.0kbits/s dup=0 drop=5 speed=1.32x elapsed=0:00:00.50    frame=   61 fps= 60 q=23.0 size=    1536KiB time=00:00:02.45 bitrate=5118.6kbits/s dup=0 drop=9 speed=2.44x elapsed=0:00:01.00    frame=  106 fps= 70 q=23.0 size=    2560KiB time=00:00:04.33 bitrate=4839.7kbits/s dup=0 drop=13 speed=2.86x elapsed=0:00:01.51    frame=  158 fps= 78 q=23.0 size=    3584KiB time=00:00:06.50 bitrate=4517.0kbits/s dup=0 drop=17 speed=3.22x elapsed=0:00:02.01    frame=  214 fps= 85 q=-1.0 size=    4608KiB time=N/A bitrate=N/A dup=0 drop=17 speed=N/A elapsed=0:00:02.52    [out#0/mp4 @ 0xbb4c50300] video:4796KiB audio:145KiB subtitle:0KiB other streams:0KiB global headers:0KiB muxing overhead: 0.169262%
frame=  224 fps= 88 q=-1.0 Lsize=    4950KiB time=00:00:09.25 bitrate=4383.8kbits/s dup=0 drop=17 speed=3.62x elapsed=0:00:02.55    
[libx264 @ 0xbb4c4d180] frame I:1     Avg QP:16.66  size:191038
[libx264 @ 0xbb4c4d180] frame P:59    Avg QP:16.63  size: 54567
[libx264 @ 0xbb4c4d180] frame B:164   Avg QP:21.26  size:  9149
[libx264 @ 0xbb4c4d180] consecutive B-frames:  1.8%  0.9%  2.7% 94.6%
[libx264 @ 0xbb4c4d180] mb I  I16..4: 11.1% 59.9% 29.0%
[libx264 @ 0xbb4c4d180] mb P  I16..4:  1.7%  1.5%  0.5%  P16..4: 44.9% 28.7% 14.5%  0.0%  0.0%    skip: 8.1%
[libx264 @ 0xbb4c4d180] mb B  I16..4:  0.4%  0.5%  0.0%  B16..8: 32.1%  4.8%  0.1%  direct:11.1%  skip:50.8%  L0:43.0% L1:47.5% BI: 9.4%
[libx264 @ 0xbb4c4d180] 8x8 transform intra:48.1% inter:46.7%
[libx264 @ 0xbb4c4d180] coded y,uvDC,uvAC intra: 60.9% 78.5% 40.4% inter: 17.7% 25.0% 0.4%
[libx264 @ 0xbb4c4d180] i16 v,h,dc,p: 52% 18% 18% 12%
[libx264 @ 0xbb4c4d180] i8 v,h,dc,ddl,ddr,vr,hd,vl,hu: 46% 18% 17%  2%  3%  4%  3%  4%  4%
[libx264 @ 0xbb4c4d180] i4 v,h,dc,ddl,ddr,vr,hd,vl,hu: 40% 18% 19%  2%  5%  5%  4%  4%  3%
[libx264 @ 0xbb4c4d180] i8c dc,h,v,p: 37% 18% 38%  7%
[libx264 @ 0xbb4c4d180] Weighted P-Frames: Y:0.0% UV:0.0%
[libx264 @ 0xbb4c4d180] ref P L0: 68.5% 31.5%
[libx264 @ 0xbb4c4d180] ref B L0: 83.0% 17.0%
[libx264 @ 0xbb4c4d180] ref B L1: 92.4%  7.6%
[libx264 @ 0xbb4c4d180] kb/s:4209.35
[aac @ 0xbb4cd1180] Qavg: 400.434
Original duration:   9.250s
Colorized duration:  10.042s
PTS factor:          0.9212x  (target: 9.250s)
Running: ffmpeg -y -i /Users/shreybirmiwal/projects/GCinema/pipeline/output/CC-Girl-Scene/Scene-004/frame0_colorized_generated.mp4 -vf setpts=0.921162*PTS -c:v libx264 -preset fast -crf 18 -r 24 -pix_fmt yuv420p -af atempo=1.085586 /Users/shreybirmiwal/projects/GCinema/pipeline/output/CC-Girl-Scene/Scene-004/frame0_colorized_generated_matched.mp4
Output saved to: /Users/shreybirmiwal/projects/GCinema/pipeline/output/CC-Girl-Scene/Scene-004/frame0_colorized_generated_matched.mp4
[Scene-004] Matched video saved.
[Scene-004] All steps complete!
